<?xml version="1.0" standalone="no"?>
<!DOCTYPE svg PUBLIC "-//W3C//DTD SVG 20010904//EN"
 "http://www.w3.org/TR/2001/REC-SVG-20010904/DTD/svg10.dtd">
<svg version="1.0" xmlns="http://www.w3.org/2000/svg"
 width="500.000000pt" height="500.000000pt" viewBox="0 0 500.000000 500.000000"
 preserveAspectRatio="xMidYMid meet">

<g transform="translate(0.000000,500.000000) scale(0.100000,-0.100000)"
fill="#000000" stroke="none">
<path d="M1160 2470 l0 -2130 1340 0 1340 0 0 2130 0 2130 -1340 0 -1340 0 0
-2130z m2560 -5 l0 -2015 -1220 0 -1220 0 0 2015 0 2015 1220 0 1220 0 0
-2015z"/>
<path d="M1540 3715 l0 -615 85 0 85 0 0 265 0 265 265 0 265 0 0 -265 0 -265
85 0 85 0 0 615 0 615 -85 0 -85 0 0 -265 0 -265 -265 0 -265 0 0 265 0 265
-85 0 -85 0 0 -615z"/>
<path d="M2590 3715 l0 -615 435 0 435 0 0 85 0 85 -350 0 -350 0 0 180 0 180
265 0 265 0 0 85 0 85 -265 0 -265 0 2 178 3 177 348 3 347 2 0 85 0 85 -435
0 -435 0 0 -615z"/>
<path d="M1540 1265 l0 -615 85 0 85 0 0 440 0 440 85 0 85 0 0 85 0 85 -85 0
-85 0 0 90 0 90 -85 0 -85 0 0 -615z"/>
<path d="M2240 1790 l0 -90 -90 0 -90 0 0 -85 0 -85 -85 0 -86 0 3 -87 3 -88
83 -3 82 -3 0 91 0 90 90 0 90 0 0 -440 0 -440 85 0 85 0 0 615 0 615 -85 0
-85 0 0 -90z"/>
<path d="M2770 1795 l0 -85 260 0 260 0 0 85 0 85 -260 0 -260 0 0 -85z"/>
<path d="M2590 1175 l0 -525 85 0 85 0 0 175 0 175 265 0 265 0 0 -175 0 -175
85 0 85 0 0 525 0 525 -85 0 -85 0 0 -265 0 -265 -262 2 -263 3 -3 263 -2 262
-85 0 -85 0 0 -525z"/>
</g>
</svg>
